<?xml version="1.0" encoding="UTF-8" standalone="no"?>
<!DOCTYPE svg PUBLIC "-//W3C//DTD SVG 1.1//EN" "http://www.w3.org/Graphics/SVG/1.1/DTD/svg11.dtd">
<svg width="100%" height="100%" viewBox="0 0 1996 1391" version="1.1" xmlns="http://www.w3.org/2000/svg" xmlns:xlink="http://www.w3.org/1999/xlink" xml:space="preserve" xmlns:serif="http://www.serif.com/" style="fill-rule:evenodd;clip-rule:evenodd;stroke-linejoin:round;stroke-miterlimit:2;">
    <g transform="matrix(1,0,0,1,-502,-804.917)">
        <g transform="matrix(3.01511,0,0,3.01511,-2784.47,-1459.43)">
            <g transform="matrix(0.825436,0,0,0.825436,190.274,89.8254)">
                <path d="M1218,833C1218,815.339 1203.66,801 1186,801L1122,801C1104.34,801 1090,815.339 1090,833L1090,897C1090,914.661 1104.34,929 1122,929L1186,929C1203.66,929 1218,914.661 1218,897L1218,833Z" style="fill:white;"/>
            </g>
            <g transform="matrix(0.917316,0,0,0.825436,73.3113,89.8254)">
                <path d="M1830,833C1830,815.339 1817.1,801 1801.2,801L1301.8,801C1285.9,801 1273,815.339 1273,833L1273,897C1273,914.661 1285.9,929 1301.8,929L1801.2,929C1817.1,929 1830,914.661 1830,897L1830,833Z" style="fill:white;"/>
            </g>
            <g transform="matrix(0.825436,0,0,0.825436,190.274,267.531)">
                <path d="M1218,833C1218,815.339 1203.66,801 1186,801L1122,801C1104.34,801 1090,815.339 1090,833L1090,897C1090,914.661 1104.34,929 1122,929L1186,929C1203.66,929 1218,914.661 1218,897L1218,833Z" style="fill:white;"/>
            </g>
            <g transform="matrix(0.917316,0,0,0.825436,73.3113,267.531)">
                <path d="M1830,833C1830,815.339 1817.1,801 1801.2,801L1301.8,801C1285.9,801 1273,815.339 1273,833L1273,897C1273,914.661 1285.9,929 1301.8,929L1801.2,929C1817.1,929 1830,914.661 1830,897L1830,833Z" style="fill:white;"/>
            </g>
            <g transform="matrix(0.825436,0,0,0.825436,190.274,445.237)">
                <path d="M1218,833C1218,815.339 1203.66,801 1186,801L1122,801C1104.34,801 1090,815.339 1090,833L1090,897C1090,914.661 1104.34,929 1122,929L1186,929C1203.66,929 1218,914.661 1218,897L1218,833Z" style="fill:white;"/>
            </g>
            <g transform="matrix(0.917316,0,0,0.825436,73.3113,445.237)">
                <path d="M1830,833C1830,815.339 1817.1,801 1801.2,801L1301.8,801C1285.9,801 1273,815.339 1273,833L1273,897C1273,914.661 1285.9,929 1301.8,929L1801.2,929C1817.1,929 1830,914.661 1830,897L1830,833Z" style="fill:white;"/>
            </g>
        </g>
    </g>
</svg>
